<?xml version="1.0" standalone="no"?>
<!DOCTYPE svg PUBLIC "-//W3C//DTD SVG 20010904//EN"
 "http://www.w3.org/TR/2001/REC-SVG-20010904/DTD/svg10.dtd">
<svg version="1.0" xmlns="http://www.w3.org/2000/svg"
 width="700.000000pt" height="700.000000pt" viewBox="0 0 700.000000 700.000000"
 preserveAspectRatio="xMidYMid meet">
<metadata>
Created by potrace 1.14, written by Peter Selinger 2001-2017
</metadata>
<g transform="translate(0.000000,700.000000) scale(0.100000,-0.100000)"
fill="#000000" stroke="none">
<path d="M4859 5339 c-268 -39 -451 -261 -433 -525 3 -46 22 -119 60 -233 31
-91 60 -178 64 -193 l8 -26 -731 1 -731 2 -38 110 c-20 61 -37 115 -38 120 0
6 17 17 38 26 59 25 90 107 60 162 -36 69 -61 73 -368 72 -241 -1 -268 -3
-297 -20 -40 -24 -66 -83 -57 -131 7 -39 63 -94 97 -95 12 0 76 -1 142 -2
l120 -2 56 -165 56 -165 -66 -80 c-36 -44 -68 -82 -71 -85 -3 -3 -34 -41 -70
-85 -35 -44 -67 -82 -70 -85 -3 -3 -34 -41 -70 -85 -84 -103 -91 -112 -116
-141 l-21 -25 -61 36 c-158 92 -340 140 -537 139 -141 0 -200 -6 -285 -30
-252 -71 -456 -208 -611 -413 -69 -90 -153 -265 -185 -386 -22 -85 -27 -122
-28 -245 -1 -167 4 -213 39 -336 82 -288 291 -541 562 -679 65 -33 243 -99
243 -90 0 3 10 1 23 -4 57 -22 260 -32 367 -18 99 13 124 18 212 47 293 98
535 314 662 592 47 104 87 245 91 323 0 16 527 18 536 3 4 -7 29 -75 54 -153
38 -114 53 -146 81 -172 40 -39 91 -44 141 -13 72 44 73 79 6 282 -32 97 -52
173 -47 176 5 4 29 32 54 62 25 30 47 57 50 60 3 3 151 181 330 395 179 215
332 399 342 410 9 11 69 83 133 160 64 77 120 141 124 143 4 1 23 -45 43 -103
l36 -104 -57 -32 c-305 -172 -505 -445 -566 -774 -81 -433 105 -876 471 -1121
274 -183 597 -235 919 -147 358 98 656 394 759 756 35 121 41 164 41 302 0
160 -9 218 -51 350 -107 326 -349 577 -675 698 -60 22 -106 34 -224 56 -42 8
-196 8 -349 -2 l-38 -2 -160 480 c-148 443 -160 484 -155 536 6 71 36 128 87
169 159 126 388 24 396 -177 5 -114 -46 -192 -159 -243 -79 -36 -99 -58 -105
-118 -4 -44 -1 -52 28 -85 40 -46 81 -55 152 -32 56 19 136 67 178 106 161
152 200 383 100 586 -64 130 -217 241 -357 258 -27 4 -55 8 -63 9 -8 2 -40 0
-71 -5z m-405 -1233 c-1 -7 -230 -288 -264 -325 -9 -9 -47 -54 -85 -101 -39
-47 -80 -96 -92 -110 -11 -14 -118 -142 -237 -285 -119 -143 -220 -261 -225
-263 -4 -1 -88 239 -186 535 -98 296 -180 543 -182 548 -2 7 213 10 634 10
351 0 637 -4 637 -9z m-1310 -665 c102 -303 184 -552 183 -552 -1 -1 -100 -2
-220 -3 -138 -1 -221 2 -226 9 -5 5 -11 34 -15 63 -15 117 -91 308 -169 421
-17 25 -33 48 -36 51 -22 19 -82 102 -79 109 2 4 19 28 40 52 20 24 83 100
140 169 56 69 113 136 126 150 12 14 32 39 45 57 12 17 23 30 24 29 2 -2 86
-251 187 -555z m-1269 175 c106 -10 273 -65 329 -108 18 -14 13 -22 -89 -144
-59 -71 -117 -140 -129 -154 -11 -14 -37 -45 -56 -70 -19 -25 -37 -47 -40 -50
-18 -16 -203 -244 -219 -271 -35 -57 -11 -133 51 -165 28 -14 83 -16 470 -16
241 0 438 -3 438 -7 0 -25 -45 -174 -69 -226 -83 -182 -244 -343 -426 -426
-115 -52 -208 -72 -335 -73 -128 -1 -196 6 -267 30 -194 62 -360 184 -470 344
-42 62 -93 165 -93 189 0 11 -4 22 -9 25 -8 6 -28 91 -38 169 -27 211 32 433
159 605 113 152 255 255 428 311 88 28 102 31 195 38 44 3 82 7 83 9 2 1 9 1
15 -1 7 -2 39 -6 72 -9z m3435 0 c105 -8 181 -29 280 -77 370 -179 561 -573
470 -973 -75 -332 -362 -600 -700 -654 -57 -9 -221 -9 -281 0 -56 8 -185 51
-242 80 -296 150 -480 455 -473 785 7 293 145 543 394 708 40 26 74 46 76 44
3 -2 66 -189 141 -414 124 -374 139 -413 170 -442 69 -66 174 -29 198 69 5 20
-29 136 -132 445 -77 230 -138 419 -136 421 4 5 138 19 150 16 6 -2 44 -5 85
-8z m-2844 -338 c77 -104 136 -240 158 -358 l6 -35 -292 1 c-161 1 -295 2
-297 3 -2 0 5 9 15 19 11 9 55 62 99 116 154 191 187 231 194 236 4 3 20 22
35 43 16 20 30 37 32 37 2 0 25 -28 50 -62z"/>
<path d="M1375 4480 c-209 -70 -391 -132 -404 -139 -12 -7 -31 -32 -42 -55
-23 -54 -12 -103 32 -140 28 -24 43 -29 89 -29 9 0 176 53 372 119 l357 118
353 -117 c194 -65 362 -119 374 -121 28 -6 96 27 112 53 32 54 22 121 -24 163
-21 18 -762 269 -809 273 -18 1 -184 -49 -410 -125z"/>
</g>
</svg>
